<mxfile host="Electron" modified="2023-11-23T10:12:35.777Z" agent="Mozilla/5.0 (Macintosh; Intel Mac OS X 10_15_7) AppleWebKit/537.36 (KHTML, like Gecko) draw.io/22.1.2 Chrome/114.0.5735.289 Electron/25.9.4 Safari/537.36" etag="rGMxC8qLqi1txqvxWkHJ" version="22.1.2" type="device">
  <diagram id="C5RBs43oDa-KdzZeNtuy" name="Page-1">
    <mxGraphModel dx="1062" dy="633" grid="1" gridSize="10" guides="1" tooltips="1" connect="1" arrows="1" fold="1" page="1" pageScale="1" pageWidth="827" pageHeight="1169" math="0" shadow="0">
      <root>
        <mxCell id="WIyWlLk6GJQsqaUBKTNV-0" />
        <mxCell id="WIyWlLk6GJQsqaUBKTNV-1" parent="WIyWlLk6GJQsqaUBKTNV-0" />
        <mxCell id="WIyWlLk6GJQsqaUBKTNV-6" value="유저 옵션 선택" style="rhombus;whiteSpace=wrap;html=1;shadow=0;fontFamily=Helvetica;fontSize=12;align=center;strokeWidth=1;spacing=6;spacingTop=-4;" parent="WIyWlLk6GJQsqaUBKTNV-1" vertex="1">
          <mxGeometry x="333" y="400" width="140" height="70" as="geometry" />
        </mxCell>
        <mxCell id="WIyWlLk6GJQsqaUBKTNV-7" value="에러 문구 출력" style="rounded=1;whiteSpace=wrap;html=1;fontSize=12;glass=0;strokeWidth=1;shadow=0;" parent="WIyWlLk6GJQsqaUBKTNV-1" vertex="1">
          <mxGeometry x="580" y="415" width="90" height="40" as="geometry" />
        </mxCell>
        <mxCell id="DZtXXvzAuNKyv4w1cx4I-2" value="시작점" style="ellipse;whiteSpace=wrap;html=1;" parent="WIyWlLk6GJQsqaUBKTNV-1" vertex="1">
          <mxGeometry x="372.75" y="80" width="60.5" height="40" as="geometry" />
        </mxCell>
        <mxCell id="DZtXXvzAuNKyv4w1cx4I-3" value="" style="endArrow=classic;html=1;rounded=0;exitX=0.5;exitY=1;exitDx=0;exitDy=0;entryX=0.5;entryY=0;entryDx=0;entryDy=0;" parent="WIyWlLk6GJQsqaUBKTNV-1" source="DZtXXvzAuNKyv4w1cx4I-2" target="Ftjd4wSwtpQcfa1r1Gln-0" edge="1">
          <mxGeometry width="50" height="50" relative="1" as="geometry">
            <mxPoint x="483" y="240" as="sourcePoint" />
            <mxPoint x="403" y="155" as="targetPoint" />
          </mxGeometry>
        </mxCell>
        <mxCell id="DZtXXvzAuNKyv4w1cx4I-9" value="" style="endArrow=classic;html=1;rounded=0;exitX=1;exitY=0.5;exitDx=0;exitDy=0;entryX=0;entryY=0.5;entryDx=0;entryDy=0;" parent="WIyWlLk6GJQsqaUBKTNV-1" source="WIyWlLk6GJQsqaUBKTNV-6" target="WIyWlLk6GJQsqaUBKTNV-7" edge="1">
          <mxGeometry width="50" height="50" relative="1" as="geometry">
            <mxPoint x="538" y="455" as="sourcePoint" />
            <mxPoint x="509" y="488" as="targetPoint" />
          </mxGeometry>
        </mxCell>
        <mxCell id="DZtXXvzAuNKyv4w1cx4I-12" value="패배 문구 출력" style="rounded=1;whiteSpace=wrap;html=1;" parent="WIyWlLk6GJQsqaUBKTNV-1" vertex="1">
          <mxGeometry x="344.5" y="710" width="120" height="40" as="geometry" />
        </mxCell>
        <mxCell id="DZtXXvzAuNKyv4w1cx4I-14" value="비긴 문구 출력" style="rounded=1;whiteSpace=wrap;html=1;" parent="WIyWlLk6GJQsqaUBKTNV-1" vertex="1">
          <mxGeometry x="499" y="710" width="120" height="40" as="geometry" />
        </mxCell>
        <mxCell id="DZtXXvzAuNKyv4w1cx4I-15" value="승리 문구 출력" style="rounded=1;whiteSpace=wrap;html=1;" parent="WIyWlLk6GJQsqaUBKTNV-1" vertex="1">
          <mxGeometry x="187" y="710" width="120" height="40" as="geometry" />
        </mxCell>
        <mxCell id="DZtXXvzAuNKyv4w1cx4I-17" value="" style="endArrow=classic;html=1;rounded=0;exitX=0.5;exitY=1;exitDx=0;exitDy=0;" parent="WIyWlLk6GJQsqaUBKTNV-1" source="Ftjd4wSwtpQcfa1r1Gln-0" edge="1">
          <mxGeometry width="50" height="50" relative="1" as="geometry">
            <mxPoint x="403" y="255" as="sourcePoint" />
            <mxPoint x="403" y="260" as="targetPoint" />
          </mxGeometry>
        </mxCell>
        <UserObject label="종료(0)" placeholders="1" name="Variable" id="DZtXXvzAuNKyv4w1cx4I-19">
          <mxCell style="text;html=1;strokeColor=none;fillColor=none;align=center;verticalAlign=middle;whiteSpace=wrap;overflow=hidden;fontSize=12;" parent="WIyWlLk6GJQsqaUBKTNV-1" vertex="1">
            <mxGeometry x="287" y="410" width="46" height="20" as="geometry" />
          </mxCell>
        </UserObject>
        <mxCell id="DZtXXvzAuNKyv4w1cx4I-20" value="" style="endArrow=classic;html=1;rounded=0;exitX=0.5;exitY=1;exitDx=0;exitDy=0;" parent="WIyWlLk6GJQsqaUBKTNV-1" edge="1" source="WIyWlLk6GJQsqaUBKTNV-6">
          <mxGeometry width="50" height="50" relative="1" as="geometry">
            <mxPoint x="407.6" y="530" as="sourcePoint" />
            <mxPoint x="403" y="510" as="targetPoint" />
          </mxGeometry>
        </mxCell>
        <mxCell id="DZtXXvzAuNKyv4w1cx4I-21" value="" style="endArrow=classic;html=1;rounded=0;entryX=0.5;entryY=0;entryDx=0;entryDy=0;exitX=0.5;exitY=1;exitDx=0;exitDy=0;" parent="WIyWlLk6GJQsqaUBKTNV-1" target="DZtXXvzAuNKyv4w1cx4I-12" edge="1" source="DZtXXvzAuNKyv4w1cx4I-27">
          <mxGeometry width="50" height="50" relative="1" as="geometry">
            <mxPoint x="403" y="780" as="sourcePoint" />
            <mxPoint x="453" y="730" as="targetPoint" />
          </mxGeometry>
        </mxCell>
        <mxCell id="DZtXXvzAuNKyv4w1cx4I-23" value="" style="edgeStyle=segmentEdgeStyle;endArrow=classic;html=1;curved=0;rounded=0;endSize=8;startSize=8;exitX=1;exitY=0.5;exitDx=0;exitDy=0;entryX=0.5;entryY=0;entryDx=0;entryDy=0;" parent="WIyWlLk6GJQsqaUBKTNV-1" source="DZtXXvzAuNKyv4w1cx4I-27" target="DZtXXvzAuNKyv4w1cx4I-14" edge="1">
          <mxGeometry width="50" height="50" relative="1" as="geometry">
            <mxPoint x="463" y="760" as="sourcePoint" />
            <mxPoint x="403" y="850" as="targetPoint" />
          </mxGeometry>
        </mxCell>
        <mxCell id="DZtXXvzAuNKyv4w1cx4I-24" value="" style="edgeStyle=segmentEdgeStyle;endArrow=classic;html=1;curved=0;rounded=0;endSize=8;startSize=8;exitX=0;exitY=0.5;exitDx=0;exitDy=0;" parent="WIyWlLk6GJQsqaUBKTNV-1" source="DZtXXvzAuNKyv4w1cx4I-27" target="DZtXXvzAuNKyv4w1cx4I-15" edge="1">
          <mxGeometry width="50" height="50" relative="1" as="geometry">
            <mxPoint x="343" y="740" as="sourcePoint" />
            <mxPoint x="403" y="850" as="targetPoint" />
            <Array as="points">
              <mxPoint x="253" y="615" />
            </Array>
          </mxGeometry>
        </mxCell>
        <mxCell id="DZtXXvzAuNKyv4w1cx4I-27" value="승부 판단" style="rhombus;whiteSpace=wrap;html=1;shadow=0;fontFamily=Helvetica;fontSize=12;align=center;strokeWidth=1;spacing=6;spacingTop=-4;" parent="WIyWlLk6GJQsqaUBKTNV-1" vertex="1">
          <mxGeometry x="354.5" y="575" width="100" height="80" as="geometry" />
        </mxCell>
        <UserObject label="&lt;font style=&quot;font-size: 12px;&quot;&gt;가위(1), 바위(2), 보(3)&lt;/font&gt;" placeholders="1" name="Variable" id="DZtXXvzAuNKyv4w1cx4I-29">
          <mxCell style="text;html=1;strokeColor=none;fillColor=none;align=center;verticalAlign=middle;whiteSpace=wrap;overflow=hidden;fontSize=9;" parent="WIyWlLk6GJQsqaUBKTNV-1" vertex="1">
            <mxGeometry x="400" y="470" width="126" height="20" as="geometry" />
          </mxCell>
        </UserObject>
        <mxCell id="DZtXXvzAuNKyv4w1cx4I-36" value="" style="endArrow=classic;html=1;rounded=0;entryX=0.5;entryY=0;entryDx=0;entryDy=0;" parent="WIyWlLk6GJQsqaUBKTNV-1" target="Ftjd4wSwtpQcfa1r1Gln-5" edge="1">
          <mxGeometry width="50" height="50" relative="1" as="geometry">
            <mxPoint x="404" y="750" as="sourcePoint" />
            <mxPoint x="404" y="860" as="targetPoint" />
          </mxGeometry>
        </mxCell>
        <mxCell id="Ftjd4wSwtpQcfa1r1Gln-0" value="게임 실행 판단" style="rhombus;whiteSpace=wrap;html=1;" vertex="1" parent="WIyWlLk6GJQsqaUBKTNV-1">
          <mxGeometry x="338" y="150" width="130" height="80" as="geometry" />
        </mxCell>
        <mxCell id="Ftjd4wSwtpQcfa1r1Gln-4" value="게임 시작" style="rounded=1;whiteSpace=wrap;html=1;" vertex="1" parent="WIyWlLk6GJQsqaUBKTNV-1">
          <mxGeometry x="334.5" y="260" width="137" height="30" as="geometry" />
        </mxCell>
        <mxCell id="Ftjd4wSwtpQcfa1r1Gln-5" value="종료" style="ellipse;whiteSpace=wrap;html=1;" vertex="1" parent="WIyWlLk6GJQsqaUBKTNV-1">
          <mxGeometry x="365.87" y="870" width="77.25" height="50" as="geometry" />
        </mxCell>
        <mxCell id="Ftjd4wSwtpQcfa1r1Gln-12" value="" style="edgeStyle=elbowEdgeStyle;elbow=horizontal;endArrow=classic;html=1;curved=0;rounded=0;endSize=8;startSize=8;entryX=1;entryY=0.5;entryDx=0;entryDy=0;exitX=1;exitY=0.5;exitDx=0;exitDy=0;" edge="1" parent="WIyWlLk6GJQsqaUBKTNV-1" source="DZtXXvzAuNKyv4w1cx4I-14" target="Ftjd4wSwtpQcfa1r1Gln-0">
          <mxGeometry width="50" height="50" relative="1" as="geometry">
            <mxPoint x="458" y="910" as="sourcePoint" />
            <mxPoint x="760" y="180" as="targetPoint" />
            <Array as="points">
              <mxPoint x="710" y="460" />
            </Array>
          </mxGeometry>
        </mxCell>
        <mxCell id="Ftjd4wSwtpQcfa1r1Gln-13" value="가위 바위 보 옵션 출력" style="rounded=1;whiteSpace=wrap;html=1;" vertex="1" parent="WIyWlLk6GJQsqaUBKTNV-1">
          <mxGeometry x="333" y="330" width="140" height="30" as="geometry" />
        </mxCell>
        <mxCell id="Ftjd4wSwtpQcfa1r1Gln-14" value="" style="endArrow=classic;html=1;rounded=0;exitX=0.5;exitY=1;exitDx=0;exitDy=0;entryX=0.5;entryY=0;entryDx=0;entryDy=0;" edge="1" parent="WIyWlLk6GJQsqaUBKTNV-1" target="Ftjd4wSwtpQcfa1r1Gln-13">
          <mxGeometry width="50" height="50" relative="1" as="geometry">
            <mxPoint x="402.78" y="290" as="sourcePoint" />
            <mxPoint x="402.78" y="320" as="targetPoint" />
          </mxGeometry>
        </mxCell>
        <mxCell id="Ftjd4wSwtpQcfa1r1Gln-16" value="" style="endArrow=classic;html=1;rounded=0;exitX=0.5;exitY=1;exitDx=0;exitDy=0;entryX=0.5;entryY=0;entryDx=0;entryDy=0;" edge="1" parent="WIyWlLk6GJQsqaUBKTNV-1">
          <mxGeometry width="50" height="50" relative="1" as="geometry">
            <mxPoint x="402.64" y="360" as="sourcePoint" />
            <mxPoint x="402.86" y="400" as="targetPoint" />
          </mxGeometry>
        </mxCell>
        <UserObject label="오입력" placeholders="1" name="Variable" id="Ftjd4wSwtpQcfa1r1Gln-19">
          <mxCell style="text;html=1;strokeColor=none;fillColor=none;align=center;verticalAlign=middle;whiteSpace=wrap;overflow=hidden;fontSize=12;" vertex="1" parent="WIyWlLk6GJQsqaUBKTNV-1">
            <mxGeometry x="480" y="410" width="46" height="20" as="geometry" />
          </mxCell>
        </UserObject>
        <mxCell id="Ftjd4wSwtpQcfa1r1Gln-20" value="컴퓨터 랜덤 가위 바위 보 선택&amp;nbsp;" style="rounded=1;whiteSpace=wrap;html=1;" vertex="1" parent="WIyWlLk6GJQsqaUBKTNV-1">
          <mxGeometry x="326.75" y="510" width="155.5" height="30" as="geometry" />
        </mxCell>
        <mxCell id="Ftjd4wSwtpQcfa1r1Gln-22" value="" style="endArrow=classic;html=1;rounded=0;exitX=0.5;exitY=1;exitDx=0;exitDy=0;entryX=0.5;entryY=0;entryDx=0;entryDy=0;" edge="1" parent="WIyWlLk6GJQsqaUBKTNV-1" source="Ftjd4wSwtpQcfa1r1Gln-20">
          <mxGeometry width="50" height="50" relative="1" as="geometry">
            <mxPoint x="498.59000000000003" y="555" as="sourcePoint" />
            <mxPoint x="404.5" y="575" as="targetPoint" />
          </mxGeometry>
        </mxCell>
        <mxCell id="Ftjd4wSwtpQcfa1r1Gln-26" value="" style="edgeStyle=segmentEdgeStyle;endArrow=classic;html=1;curved=0;rounded=0;endSize=8;startSize=8;exitX=0.53;exitY=0.996;exitDx=0;exitDy=0;exitPerimeter=0;entryX=0;entryY=0;entryDx=0;entryDy=0;" edge="1" parent="WIyWlLk6GJQsqaUBKTNV-1" source="DZtXXvzAuNKyv4w1cx4I-15" target="Ftjd4wSwtpQcfa1r1Gln-5">
          <mxGeometry width="50" height="50" relative="1" as="geometry">
            <mxPoint x="214.5" y="770" as="sourcePoint" />
            <mxPoint x="350" y="900" as="targetPoint" />
            <Array as="points">
              <mxPoint x="251" y="877" />
              <mxPoint x="365" y="877" />
            </Array>
          </mxGeometry>
        </mxCell>
        <mxCell id="Ftjd4wSwtpQcfa1r1Gln-27" value="" style="edgeStyle=elbowEdgeStyle;elbow=horizontal;endArrow=classic;html=1;curved=0;rounded=0;endSize=8;startSize=8;exitX=0;exitY=0.5;exitDx=0;exitDy=0;entryX=0;entryY=1;entryDx=0;entryDy=0;" edge="1" parent="WIyWlLk6GJQsqaUBKTNV-1" source="Ftjd4wSwtpQcfa1r1Gln-0" target="Ftjd4wSwtpQcfa1r1Gln-5">
          <mxGeometry width="50" height="50" relative="1" as="geometry">
            <mxPoint x="100" y="360" as="sourcePoint" />
            <mxPoint x="338" y="940" as="targetPoint" />
            <Array as="points">
              <mxPoint x="120" y="550" />
            </Array>
          </mxGeometry>
        </mxCell>
        <UserObject label="true" placeholders="1" name="Variable" id="Ftjd4wSwtpQcfa1r1Gln-28">
          <mxCell style="text;html=1;strokeColor=none;fillColor=none;align=center;verticalAlign=middle;whiteSpace=wrap;overflow=hidden;fontSize=12;" vertex="1" parent="WIyWlLk6GJQsqaUBKTNV-1">
            <mxGeometry x="397.12" y="230" width="46" height="20" as="geometry" />
          </mxCell>
        </UserObject>
        <UserObject label="false" placeholders="1" name="Variable" id="Ftjd4wSwtpQcfa1r1Gln-29">
          <mxCell style="text;html=1;strokeColor=none;fillColor=none;align=center;verticalAlign=middle;whiteSpace=wrap;overflow=hidden;fontSize=12;" vertex="1" parent="WIyWlLk6GJQsqaUBKTNV-1">
            <mxGeometry x="292" y="170" width="46" height="20" as="geometry" />
          </mxCell>
        </UserObject>
        <mxCell id="Ftjd4wSwtpQcfa1r1Gln-30" value="" style="endArrow=classic;html=1;rounded=0;exitX=0.5;exitY=0;exitDx=0;exitDy=0;" edge="1" parent="WIyWlLk6GJQsqaUBKTNV-1" source="WIyWlLk6GJQsqaUBKTNV-7">
          <mxGeometry width="50" height="50" relative="1" as="geometry">
            <mxPoint x="380" y="430" as="sourcePoint" />
            <mxPoint x="625" y="190" as="targetPoint" />
          </mxGeometry>
        </mxCell>
        <mxCell id="Ftjd4wSwtpQcfa1r1Gln-32" value="" style="endArrow=classic;html=1;rounded=0;exitX=0;exitY=0.5;exitDx=0;exitDy=0;" edge="1" parent="WIyWlLk6GJQsqaUBKTNV-1" source="WIyWlLk6GJQsqaUBKTNV-6">
          <mxGeometry width="50" height="50" relative="1" as="geometry">
            <mxPoint x="290" y="450" as="sourcePoint" />
            <mxPoint x="120" y="435" as="targetPoint" />
          </mxGeometry>
        </mxCell>
      </root>
    </mxGraphModel>
  </diagram>
</mxfile>
